<?xml version="1.0" encoding="utf-8"?>
<!-- Generator: Adobe Illustrator 15.0.2, SVG Export Plug-In . SVG Version: 6.00 Build 0)  -->
<!DOCTYPE svg PUBLIC "-//W3C//DTD SVG 1.1//EN" "http://www.w3.org/Graphics/SVG/1.1/DTD/svg11.dtd">
<svg version="1.1" id="Layer_1" xmlns="http://www.w3.org/2000/svg" xmlns:xlink="http://www.w3.org/1999/xlink" x="0px" y="0px"
	 width="142px" height="40.523px" viewBox="353 0 142 40.523" enable-background="new 353 0 142 40.523" xml:space="preserve">
<g>
	<path fill="#FFFFFF" d="M392.956,13.164v13.909c0,4.748-3.852,8.603-8.603,8.603h-8.777l1.673-3.826h7.104
		c2.636,0,4.78-2.142,4.78-4.776V16.988h-9.756c-2.635,0-4.78,2.143-4.78,4.778v16.869h-3.824V21.767
		c0-4.752,3.854-8.603,8.604-8.603h5.933V5.346h-7.315c-5.27,0-9.557,4.288-9.557,9.557v23.733h-3.824V14.902
		c0-7.391,5.992-13.382,13.382-13.382h11.14v11.644H392.956L392.956,13.164z"/>
	<path fill="#FFFFFF" d="M400.759,35.188c-0.116-0.799-0.67-1.195-1.329-1.195c-1.198,0-1.452,1.119-1.452,1.871
		c0,0.757,0.254,1.874,1.452,1.874c0.611,0,1.204-0.348,1.329-1.228h1.375c-0.156,1.617-1.271,2.285-2.75,2.285
		c-1.693,0-2.749-0.87-2.749-2.932c0-2.058,1.056-2.929,2.749-2.929c1.12,0,2.548,0.342,2.737,2.253H400.759L400.759,35.188z"/>
	<path fill="#FFFFFF" d="M402.697,35.749c0.138-1.283,1.127-1.432,2.065-1.432c1.641,0,1.993,0.638,1.993,1.415V37.8
		c0,0.366,0.054,0.629,0.13,0.841h-1.146c-0.038-0.148-0.071-0.298-0.078-0.443c-0.391,0.465-1.12,0.598-1.634,0.598
		c-0.912,0-1.553-0.382-1.553-1.353c0-1.011,0.752-1.228,1.446-1.281l1.22-0.103c0.351-0.031,0.469-0.101,0.469-0.434
		c0-0.334-0.236-0.499-0.899-0.499c-0.487,0-0.743,0.048-0.906,0.624L402.697,35.749L402.697,35.749z M405.648,36.61
		c-0.215,0.124-0.449,0.155-0.678,0.18l-0.665,0.069c-0.404,0.039-0.604,0.172-0.604,0.545s0.292,0.582,0.723,0.582
		c0.579,0,1.226-0.335,1.226-1.033L405.648,36.61L405.648,36.61z"/>
	<path fill="#FFFFFF" d="M407.509,34.474h1.108v0.815h0.013c0.417-0.637,0.742-0.926,1.395-0.926c0.132,0,0.286,0.008,0.417,0.039
		v1.284c-0.209-0.071-0.417-0.125-0.633-0.125c-0.782,0-1.153,0.473-1.153,1.281v1.798h-1.146V34.474z"/>
	<path fill="#FFFFFF" d="M415.176,37.396c-0.332,0.987-1.127,1.399-2.178,1.399c-1.38,0-2.306-0.668-2.306-2.238
		c0-1.568,0.926-2.238,2.306-2.238c1.513,0,2.242,0.909,2.242,2.479v0.126h-3.36v0.015c0,0.396,0.339,1.004,1.118,1.004
		c0.464,0,0.791-0.188,0.954-0.544L415.176,37.396L415.176,37.396z M414.055,36.113v-0.016c0-0.225-0.241-0.924-1.081-0.924
		c-0.906,0-1.096,0.822-1.096,0.924v0.016H414.055z"/>
	<rect x="416.007" y="37.317" fill="#FFFFFF" width="1.264" height="1.323"/>
	<polygon fill="#FFFFFF" points="420.77,34.226 420.758,34.226 420.758,38.641 420.073,38.641 420.073,33.09 420.868,33.09 
		423.831,37.504 423.844,37.504 423.844,33.09 424.528,33.09 424.528,38.641 423.733,38.641 	"/>
	<path fill="#FFFFFF" d="M427.064,34.429c1.315,0,1.96,1.001,1.96,2.174c0,1.175-0.644,2.177-1.96,2.177
		c-1.319,0-1.963-1.002-1.963-2.177C425.102,35.43,425.745,34.429,427.064,34.429 M427.064,35.08c-0.938,0-1.279,0.784-1.279,1.522
		c0,0.739,0.342,1.524,1.279,1.524c0.935,0,1.277-0.785,1.277-1.524C428.342,35.864,427.999,35.08,427.064,35.08"/>
	<path fill="#FFFFFF" d="M436.5,36.052c0-0.746-0.396-0.972-0.813-0.972c-0.588,0-1.111,0.334-1.111,1.095v2.466h-0.644v-2.589
		c0-0.745-0.395-0.971-0.815-0.971c-0.587,0-1.109,0.409-1.109,1.21v2.35h-0.646v-4.074h0.646v0.615h0.014
		c0.303-0.567,0.84-0.753,1.322-0.753c0.438,0,0.878,0.217,1.149,0.753c0.311-0.467,0.723-0.753,1.367-0.753
		c0.345,0,1.285,0.191,1.285,1.435v2.777H436.5V36.052L436.5,36.052L436.5,36.052z"/>
	<path fill="#FFFFFF" d="M437.841,35.842c0.083-1.019,0.664-1.413,1.678-1.413c0.689,0,1.555,0.208,1.555,1.156v2.193
		c0,0.237,0.09,0.349,0.291,0.349c0.069,0,0.16-0.017,0.228-0.032v0.546c-0.158,0.029-0.35,0.046-0.506,0.046
		c-0.321,0-0.534-0.108-0.579-0.568c-0.26,0.42-0.892,0.661-1.44,0.661c-1.124,0-1.376-0.7-1.376-1.227
		c0-0.747,0.368-1.129,1.452-1.269l0.738-0.092c0.36-0.047,0.587-0.126,0.587-0.491c0-0.559-0.452-0.668-0.975-0.668
		c-0.558,0-1.028,0.179-1.047,0.808L437.841,35.842L437.841,35.842z M440.468,36.51c-0.096,0.133-0.271,0.187-0.633,0.241
		l-0.729,0.108c-0.506,0.078-0.77,0.241-0.77,0.668c0,0.382,0.316,0.646,0.786,0.646c0.729,0,1.345-0.466,1.345-1.142V36.51
		L440.468,36.51z"/>
	<path fill="#FFFFFF" d="M442.054,33.315h0.646v1.251h0.968v0.607H442.7v2.509c0,0.328,0.192,0.444,0.522,0.444
		c0.146,0,0.296-0.024,0.445-0.054v0.652c-0.22,0.046-0.459,0.056-0.724,0.056c-0.633,0-0.892-0.376-0.892-0.965v-2.643h-0.698
		v-0.606h0.698L442.054,33.315L442.054,33.315z"/>
	<path fill="#FFFFFF" d="M444.439,33.315h0.646v1.251h0.969v0.607h-0.969v2.509c0,0.328,0.191,0.444,0.523,0.444
		c0.149,0,0.297-0.024,0.444-0.054v0.652c-0.219,0.046-0.456,0.056-0.723,0.056c-0.632,0-0.893-0.376-0.893-0.965v-2.643h-0.697
		v-0.606h0.697L444.439,33.315L444.439,33.315z"/>
	<path fill="#FFFFFF" d="M447.003,36.837c0.05,0.84,0.671,1.29,1.245,1.29c0.37,0,0.873-0.149,1.093-0.723h0.684
		c-0.323,0.979-1.079,1.375-1.745,1.375c-1.316,0-1.961-1.002-1.961-2.177c0-1.173,0.645-2.174,1.961-2.174
		c0.892,0,1.835,0.62,1.835,2.305v0.104H447.003L447.003,36.837L447.003,36.837z M449.429,36.23
		c-0.096-0.74-0.573-1.151-1.181-1.151c-0.593,0-1.131,0.42-1.227,1.151H449.429z"/>
	<path fill="#FFFFFF" d="M450.631,34.567h0.644v0.746h0.013c0.305-0.647,0.738-0.885,1.162-0.885c0.161,0,0.246,0.006,0.368,0.045
		v0.84c-0.161-0.048-0.284-0.078-0.459-0.078c-0.638,0-1.084,0.451-1.084,1.337v2.067h-0.645L450.631,34.567L450.631,34.567z"/>
	<polygon fill="#FFFFFF" points="459.552,34.567 460.232,34.567 458.899,38.641 458.193,38.641 457.349,35.53 457.335,35.53 
		456.489,38.641 455.808,38.641 454.494,34.567 455.21,34.567 456.148,37.677 456.16,37.677 457,34.567 457.709,34.567 
		458.568,37.677 458.583,37.677 	"/>
	<path fill="#FFFFFF" d="M460.597,33.045h0.649v2.136h0.013c0.304-0.566,0.838-0.752,1.323-0.752c0.812,0,1.42,0.418,1.42,1.435
		v2.777h-0.644v-2.62c0-0.598-0.312-0.939-1.003-0.939c-0.587,0-1.109,0.41-1.109,1.212v2.348h-0.647L460.597,33.045L460.597,33.045
		z"/>
	<path fill="#FFFFFF" d="M464.716,35.842c0.087-1.019,0.665-1.413,1.68-1.413c0.69,0,1.557,0.208,1.557,1.156v2.193
		c0,0.237,0.092,0.349,0.29,0.349c0.07,0,0.161-0.017,0.226-0.032v0.546c-0.155,0.029-0.35,0.046-0.503,0.046
		c-0.323,0-0.535-0.108-0.581-0.568c-0.259,0.42-0.892,0.661-1.44,0.661c-1.124,0-1.373-0.7-1.373-1.227
		c0-0.747,0.368-1.129,1.452-1.269l0.735-0.092c0.361-0.047,0.587-0.126,0.587-0.491c0-0.559-0.452-0.668-0.975-0.668
		c-0.557,0-1.026,0.179-1.047,0.808L464.716,35.842L464.716,35.842z M467.345,36.51c-0.096,0.133-0.271,0.187-0.633,0.241
		l-0.729,0.108c-0.504,0.078-0.771,0.241-0.771,0.668c0,0.382,0.318,0.646,0.789,0.646c0.729,0,1.342-0.466,1.342-1.142
		L467.345,36.51L467.345,36.51L467.345,36.51z"/>
	<path fill="#FFFFFF" d="M468.995,33.315h0.645v1.251h0.971v0.607h-0.971v2.509c0,0.328,0.196,0.444,0.523,0.444
		c0.151,0,0.297-0.024,0.447-0.054v0.652c-0.223,0.046-0.46,0.056-0.724,0.056c-0.635,0-0.892-0.376-0.892-0.965v-2.643h-0.696
		v-0.606h0.696V33.315L468.995,33.315z"/>
	<rect x="471.286" y="37.739" fill="#FFFFFF" width="0.803" height="0.902"/>
	<path fill="#FFFFFF" d="M398.985,13.169V9.326h3.908c2.241,0,3.193-1.808,3.193-3.809c0-2.273-0.785-3.995-3.241-3.995h-6.065
		v11.646H398.985z M398.985,7.488V3.394h3.292c0.901,0,1.387,0.685,1.387,2.106c0,1.319-0.519,1.988-1.438,1.988H398.985z"/>
	<path fill="#FFFFFF" d="M409.191,1.104h-2.071v9.759c0,1.236,0.317,2.038,0.902,2.706l1.82-0.782
		c-0.468-0.619-0.651-1.189-0.651-2.008V1.104L409.191,1.104z"/>
	<path fill="#FFFFFF" d="M418.112,7.722c0-2.539-1.15-3.309-3.675-3.309c-1.219,0-2.507,0.219-3.392,0.45l0.383,1.706
		c0.701-0.253,1.639-0.417,2.573-0.417c1.77,0,2.122,0.367,2.122,1.853c-0.718-0.15-1.386-0.235-2.105-0.235
		c-1.986,0-3.343,0.387-3.343,2.792c0,2.225,0.904,2.841,3.593,2.841c1.188,0,2.774-0.252,3.845-0.668L418.112,7.722L418.112,7.722z
		 M416.124,11.531c-0.483,0.168-1.102,0.285-1.703,0.285c-1.254,0-1.57-0.186-1.57-1.337c0-1.087,0.417-1.219,1.587-1.219
		c0.617,0,1.22,0.049,1.687,0.149V11.531L416.124,11.531z"/>
	<path fill="#FFFFFF" d="M421.472,6.484c0.503-0.133,0.985-0.199,1.522-0.199c1.468,0,1.819,0.467,1.819,2.354v4.529h2.073V8.425
		c0-3.057-1.069-4.013-3.461-4.013c-1.353,0-2.99,0.335-4.026,0.739v8.018h2.072V6.484z"/>
	<path fill="#FFFFFF" d="M430.237,6.484c0.5-0.133,0.984-0.199,1.521-0.199c1.468,0,1.818,0.467,1.818,2.354v4.529h2.072V8.425
		c0-3.057-1.068-4.013-3.456-4.013c-1.356,0-2.994,0.335-4.03,0.739v8.018h2.074V6.484L430.237,6.484z"/>
	<path fill="#FFFFFF" d="M443.592,11.297c-0.67,0.201-1.79,0.353-2.393,0.353c-1.487,0-2.188-0.369-2.205-2.188h5.497
		c0.151-4.128-1.021-5.049-3.709-5.049c-2.473,0-3.958,1.053-3.958,4.463c0,3.491,1.668,4.527,4.124,4.527
		c0.87,0,2.123-0.184,2.976-0.466L443.592,11.297z M439.011,7.87c0.133-1.4,0.584-1.819,1.888-1.819
		c1.187,0,1.619,0.317,1.688,1.819H439.011"/>
	<path fill="#FFFFFF" d="M453.262,1.104h-2.069v3.793c-0.453-0.249-1.07-0.484-2.04-0.484c-2.274,0-3.693,1.052-3.693,4.496
		c0,3.49,1.286,4.492,4.096,4.492c1.219,0,2.789-0.25,3.707-0.614V1.104L453.262,1.104z M451.191,11.381
		c-0.436,0.15-1.07,0.25-1.637,0.25c-1.474,0-1.956-0.435-1.956-2.755c0-2.123,0.467-2.707,1.921-2.707
		c0.935,0,1.672,0.315,1.672,0.82V11.381L451.191,11.381z"/>
	<path fill="#FFFFFF" d="M398.985,28.635v-3.843h3.908c2.241,0,3.193-1.804,3.193-3.81c0-2.271-0.785-3.994-3.241-3.994h-6.065
		v11.646H398.985L398.985,28.635z M398.985,22.953v-4.094h3.292c0.901,0,1.387,0.686,1.387,2.106c0,1.318-0.519,1.987-1.438,1.987
		H398.985L398.985,22.953z"/>
	<path fill="#FFFFFF" d="M414.222,23.188c0-2.542-1.154-3.31-3.676-3.31c-1.221,0-2.508,0.218-3.392,0.45l0.383,1.706
		c0.702-0.251,1.638-0.419,2.574-0.419c1.771,0,2.12,0.369,2.12,1.854c-0.717-0.147-1.387-0.23-2.104-0.23
		c-1.988,0-3.341,0.383-3.341,2.789c0,2.22,0.902,2.84,3.593,2.84c1.186,0,2.772-0.252,3.843-0.668V23.188L414.222,23.188z
		 M412.231,26.995c-0.483,0.169-1.102,0.286-1.704,0.286c-1.253,0-1.569-0.184-1.569-1.336c0-1.086,0.417-1.22,1.588-1.22
		c0.616,0,1.219,0.05,1.686,0.15V26.995L412.231,26.995z"/>
	<path fill="#FFFFFF" d="M415.507,28.636h2.072v-5.898c0-0.619,0.919-0.954,1.957-0.954c0.367,0,0.786,0.05,1.086,0.117V19.93
		c-0.3-0.035-0.585-0.052-0.87-0.052c-1.218,0-1.873,0.419-2.173,0.887V20.13h-2.072V28.636L415.507,28.636L415.507,28.636z"/>
	<path fill="#FFFFFF" d="M427.72,26.764c-0.668,0.198-1.785,0.351-2.39,0.351c-1.486,0-2.186-0.367-2.204-2.19h5.496
		c0.151-4.126-1.018-5.046-3.711-5.046c-2.472,0-3.959,1.054-3.959,4.463c0,3.491,1.672,4.527,4.129,4.527
		c0.868,0,2.121-0.184,2.975-0.468L427.72,26.764z M423.145,23.337c0.131-1.402,0.582-1.819,1.886-1.819
		c1.184,0,1.62,0.316,1.688,1.819H423.145"/>
	<path fill="#FFFFFF" d="M431.775,21.95c0.502-0.134,0.988-0.203,1.521-0.203c1.468,0,1.821,0.472,1.821,2.36v4.528h2.073v-4.747
		c0-3.059-1.072-4.01-3.46-4.01c-1.354,0-2.993,0.335-4.026,0.735v8.021h2.07V21.95L431.775,21.95z"/>
	<path fill="#FFFFFF" d="M444.189,21.934V20.13h-2.825v-2.291l-2.073,0.853v1.438h-1.419v1.804h1.419v3.842
		c0,2.525,0.938,3.094,2.842,3.094c0.82,0,1.736-0.167,2.339-0.384l-0.368-1.639c-0.416,0.134-0.901,0.231-1.453,0.231
		c-1,0-1.286-0.432-1.286-1.485v-3.658L444.189,21.934L444.189,21.934L444.189,21.934z"/>
	<path fill="#FFFFFF" d="M452.693,23.739c0-3.176-1.089-3.86-3.075-3.86c-0.871,0-1.79,0.3-2.341,0.584v-3.892h-2.07v12.064h2.07
		v-6.134c0-0.501,0.787-0.753,1.639-0.753c1.335,0,1.702,0.753,1.702,2.156v4.73h2.075V23.739"/>
	<path fill="#FFFFFF" d="M453.668,24.341c0,3.491,1.336,4.527,4.044,4.527c2.741,0,4.076-1.036,4.076-4.527
		c0-3.476-1.352-4.462-4.076-4.462C455.023,19.879,453.668,20.865,453.668,24.341 M455.809,24.373c0-2.439,0.45-2.823,1.904-2.823
		c1.486,0,1.94,0.384,1.94,2.823c0,2.357-0.454,2.826-1.94,2.826C456.258,27.199,455.809,26.73,455.809,24.373"/>
	<path fill="#FFFFFF" d="M462.72,24.341c0,3.491,1.336,4.527,4.042,4.527c2.743,0,4.077-1.036,4.077-4.527
		c0-3.476-1.353-4.462-4.077-4.462C464.074,19.879,462.72,20.865,462.72,24.341 M464.859,24.373c0-2.439,0.45-2.823,1.902-2.823
		c1.488,0,1.939,0.384,1.939,2.823c0,2.357-0.451,2.826-1.939,2.826C465.311,27.199,464.859,26.73,464.859,24.373"/>
	<path fill="#FFFFFF" d="M479.56,16.571h-2.071v3.791c-0.455-0.249-1.071-0.483-2.041-0.483c-2.273,0-3.692,1.053-3.692,4.495
		c0,3.491,1.286,4.494,4.096,4.494c1.218,0,2.788-0.252,3.709-0.619V16.571L479.56,16.571z M477.488,26.847
		c-0.435,0.148-1.071,0.251-1.638,0.251c-1.473,0-1.957-0.435-1.957-2.757c0-2.121,0.467-2.706,1.922-2.706
		c0.936,0,1.673,0.315,1.673,0.816V26.847z"/>
	<path fill="#FFFFFF" d="M482.889,16.558c0.869,0,1.576,0.705,1.576,1.574c0,0.868-0.707,1.575-1.576,1.575
		c-0.868,0-1.574-0.707-1.574-1.575C481.314,17.263,482.021,16.558,482.889,16.558 M482.889,19.297c0.665,0,1.117-0.451,1.117-1.165
		s-0.452-1.165-1.117-1.165c-0.66,0-1.112,0.452-1.112,1.165C481.776,18.846,482.227,19.297,482.889,19.297 M482.262,17.271h0.672
		c0.452,0,0.664,0.192,0.664,0.538c0,0.293-0.186,0.456-0.435,0.485l0.427,0.701h-0.409l-0.389-0.685h-0.146v0.685h-0.385V17.271
		L482.262,17.271z M482.647,18.003h0.282c0.169,0,0.285-0.029,0.285-0.214c0-0.188-0.184-0.209-0.32-0.209h-0.247V18.003
		L482.647,18.003z"/>
</g>
</svg>
