<?xml version="1.0" encoding="utf-8"?>
<!-- Generator: Adobe Illustrator 15.0.2, SVG Export Plug-In . SVG Version: 6.00 Build 0)  -->
<!DOCTYPE svg PUBLIC "-//W3C//DTD SVG 1.1//EN" "http://www.w3.org/Graphics/SVG/1.1/DTD/svg11.dtd">
<svg version="1.1"
	 id="svg7019" xmlns:svg="http://www.w3.org/2000/svg" xmlns:rdf="http://www.w3.org/1999/02/22-rdf-syntax-ns#" xmlns:cc="http://creativecommons.org/ns#" xmlns:dc="http://purl.org/dc/elements/1.1/"
	 xmlns="http://www.w3.org/2000/svg" xmlns:xlink="http://www.w3.org/1999/xlink" x="0px" y="0px" width="136.386px"
	 height="35.827px" viewBox="243.964 0 136.386 35.827" enable-background="new 243.964 0 136.386 35.827" xml:space="preserve">
<g id="layer1" transform="translate(-361.68805,-462.29359)">
	<g id="g6005" transform="matrix(4.1485983,0,0,-4.1485983,519.62538,515.60327)">
		<path id="path6007" fill="#FFFFFF" d="M29.277,9.917h-2.693v2.692h-2.692V9.917h-2.693V7.224h2.693V4.531h2.692v2.693h2.693V9.917
			z"/>
	</g>
	<g id="g5943" transform="matrix(5.2716063,0,0,-5.2716063,590.48265,547.35171)">
		<path id="path5945" fill="#FFFFFF" d="M11.947,11.219h-0.355v0.611h0.352c0.123,0,0.413-0.002,0.413-0.305
			C12.356,11.216,12.059,11.219,11.947,11.219 M12.572,10.844l0.044,0.017c0.111,0.044,0.207,0.082,0.298,0.18
			c0.123,0.125,0.185,0.299,0.185,0.497c0,0.254-0.11,0.586-0.418,0.717c-0.162,0.068-0.41,0.077-0.609,0.077h-1.226V9.819h0.746
			v0.909h0.274l0.502-0.909h0.823c-0.042,0.069-0.603,1-0.603,1L12.572,10.844z"/>
	</g>
	<g id="g5947" transform="matrix(5.2716063,0,0,-5.2716063,654.88796,547.40814)">
		<path id="path5949" fill="#FFFFFF" d="M4.153,11.226c0.096,0,0.227-0.061,0.279-0.23c0.025-0.074,0.03-0.148,0.03-0.239
			c0-0.096,0-0.273-0.103-0.38c-0.057-0.057-0.131-0.089-0.202-0.089c-0.078,0-0.152,0.031-0.203,0.086
			c-0.074,0.079-0.11,0.203-0.11,0.379c0,0.084,0.007,0.155,0.022,0.222v0v0.001C3.93,11.208,4.102,11.226,4.153,11.226
			 M3.172,10.793c0-0.599,0.315-1.009,0.803-1.009c0.102,0,0.19,0.015,0.269,0.045c0.099,0.038,0.133,0.076,0.179,0.128l0.044,0.05
			V9.83h0.661v2.509H4.445v-0.772v-0.055l-0.049,0.043c-0.074,0.067-0.186,0.169-0.445,0.169
			C3.563,11.724,3.172,11.419,3.172,10.793"/>
	</g>
	<g id="g5951" transform="matrix(5.2716063,0,0,-5.2716063,619.21025,550.32802)">
		<path id="path5953" fill="#FFFFFF" d="M8.47,11.58c0.017,0.08,0.063,0.278,0.301,0.278c0.109,0,0.234-0.064,0.27-0.207
			l0.008-0.048l0.006-0.056H8.464L8.47,11.58z M9.152,11.056c-0.079-0.171-0.201-0.254-0.356-0.254
			c-0.066,0-0.161,0.016-0.238,0.093c-0.088,0.088-0.092,0.18-0.096,0.262l-0.001,0.028h1.287c-0.006,0.275-0.017,0.569-0.272,0.821
			c-0.228,0.221-0.519,0.292-0.722,0.292c-0.591,0-0.988-0.412-0.988-0.988c0-0.261,0.087-0.501,0.246-0.677
			c0.178-0.197,0.436-0.325,0.746-0.325c0.415,0,0.737,0.2,0.953,0.515C9.661,10.844,9.189,11.04,9.152,11.056"/>
	</g>
	<g id="g5955" transform="matrix(5.2716063,0,0,-5.2716063,589.89431,505.90743)">
		<path id="path5957" fill="#FFFFFF" d="M12.018,6.204l0.3,0.97l0.292-0.97H12.018z M12.883,5.292h0.8
			c-0.025,0.064-0.925,2.48-0.937,2.512h-0.849c-0.012-0.031-0.934-2.447-0.959-2.512h0.799l0.119,0.376h0.911L12.883,5.292"/>
	</g>
	<g id="g5959" transform="matrix(5.2716063,0,0,-5.2716063,634.81265,503.09866)">
		<path id="path5961" fill="#FFFFFF" d="M6.582,5.864C6.59,5.827,6.593,5.789,6.593,5.753V4.759h0.682v0.983
			c0,0.039,0,0.12,0.039,0.192c0.046,0.087,0.119,0.132,0.244,0.132c0.281,0,0.271-0.23,0.271-0.341V4.759h0.682
			c0,0.047,0,1.189,0,1.189l0,0.001c-0.003,0.17-0.007,0.362-0.167,0.518C8.232,6.58,8.051,6.645,7.85,6.645
			c-0.438,0-0.56-0.232-0.594-0.31L7.235,6.288L7.211,6.334C7.164,6.426,7.099,6.531,6.867,6.603
			C6.758,6.638,6.658,6.645,6.594,6.645c-0.38,0-0.476-0.18-0.534-0.274L6.01,6.29v0.309H5.36v-1.84h0.683v1.002l0.001,0.012
			c0.003,0.063,0.007,0.141,0.077,0.211c0.052,0.052,0.116,0.082,0.202,0.082C6.431,6.066,6.549,6.013,6.582,5.864"/>
	</g>
	<g id="g5963" transform="matrix(5.2716063,0,0,-5.2716063,677.14837,501.737)">
		<path id="path5965" fill="#FFFFFF" d="M1.459,5.7c0.017,0.08,0.063,0.279,0.301,0.279c0.109,0,0.234-0.064,0.269-0.207
			l0.009-0.048l0.005-0.055H1.452L1.459,5.7z M2.141,5.176C2.062,5.005,1.94,4.923,1.785,4.923c-0.066,0-0.161,0.016-0.237,0.092
			c-0.088,0.088-0.093,0.18-0.097,0.263L1.45,5.306h1.287C2.73,5.581,2.719,5.876,2.465,6.127C2.237,6.348,1.946,6.419,1.742,6.419
			c-0.591,0-0.988-0.412-0.988-0.988C0.754,5.17,0.841,4.93,1,4.754c0.178-0.197,0.436-0.326,0.745-0.326
			c0.415,0,0.736,0.2,0.954,0.515C2.65,4.964,2.177,5.16,2.141,5.176"/>
	</g>
	<g id="g5967" transform="matrix(5.2716063,0,0,-5.2716063,709.11963,492.19706)">
		<path id="path5969" fill="#FFFFFF" d="M-2.409,4.545h-0.654V2.691h0.679v0.87v0.001c0.004,0.117,0.012,0.425,0.466,0.425
			c0.042,0,0.109-0.002,0.149-0.005v0.591c-0.255-0.001-0.408-0.047-0.598-0.217L-2.409,4.32V4.545z"/>
	</g>
	<path id="path5971" fill="#FFFFFF" d="M701.092,468.291h3.871v9.733h-3.871V468.291z M701.092,464.76h3.871v2.573h-3.871V464.76z"
		/>
	<g id="g5973" transform="matrix(5.2716063,0,0,-5.2716063,761.376,515.71577)">
		<path id="path5975" fill="#FFFFFF" d="M-8.733,7.391c0.081,0.082,0.134,0.172,0.177,0.262c-0.036,0.02-0.483,0.265-0.528,0.289
			C-9.121,7.822-9.21,7.621-9.431,7.621c-0.155,0-0.341,0.077-0.341,0.448c0,0.322,0.137,0.522,0.358,0.522
			c0.159,0,0.271-0.096,0.329-0.293c0.046,0.026,0.489,0.276,0.528,0.298C-8.592,8.654-8.639,8.718-8.702,8.78
			c-0.276,0.281-0.632,0.301-0.747,0.301c-0.314,0-0.571-0.11-0.743-0.29c-0.163-0.167-0.256-0.428-0.256-0.702
			c0-0.596,0.375-1.005,0.956-1.005C-9.081,7.084-8.837,7.284-8.733,7.391"/>
	</g>
	<g id="g5977" transform="matrix(5.2716063,0,0,-5.2716063,778.40272,508.47784)">
		<path id="path5979" fill="#FFFFFF" d="M-10.793,6.515L-10.793,6.515l0.001,0c0.058,0.02,0.115,0.033,0.17,0.046l0.019,0.004
			c0.071,0.02,0.14,0.045,0.207,0.068l0.041,0.014V6.613c0-0.064,0-0.129-0.038-0.212c-0.07-0.155-0.253-0.214-0.36-0.214
			c-0.151,0-0.207,0.083-0.207,0.147C-10.959,6.362-10.947,6.454-10.793,6.515 M-10.948,5.739c0.333,0,0.5,0.116,0.59,0.178
			l0.043,0.029V5.779h0.651c-0.035,0.057-0.043,0.103-0.043,0.205v1.027c0,0.107,0,0.269-0.104,0.403
			c-0.126,0.162-0.377,0.268-0.746,0.268c-0.278,0-0.491-0.055-0.649-0.137c-0.24-0.126-0.292-0.315-0.319-0.475
			c0.054,0.001,0.601,0.016,0.636,0.017c0.029,0.147,0.1,0.195,0.264,0.195c0.222,0,0.269-0.093,0.273-0.234l0.001-0.02
			l-0.018-0.005c-0.112-0.032-0.191-0.05-0.395-0.079c-0.308-0.041-0.511-0.067-0.675-0.235c-0.099-0.099-0.149-0.226-0.149-0.377
			C-11.588,6.058-11.419,5.739-10.948,5.739"/>
	</g>
	<g id="g5981" transform="matrix(5.2716063,0,0,-5.2716063,817.50539,504.50676)">
		<path id="path5983" fill="#FFFFFF" d="M-15.525,6.035V5.026h0.683v1.165c0,0.099,0,0.388-0.177,0.561
			c-0.114,0.107-0.27,0.164-0.471,0.164c-0.386,0-0.503-0.187-0.566-0.277l-0.048-0.068V6.87h-0.643V5.026h0.682v0.983
			c0,0.081,0.004,0.327,0.276,0.327C-15.515,6.337-15.525,6.117-15.525,6.035"/>
	</g>
	<g id="g5985" transform="matrix(5.2716063,0,0,-5.2716063,695.93751,556.5148)">
		<path id="path5987" fill="#FFFFFF" d="M-0.814,12.328c-0.079,0.129-0.122,0.307-0.122,0.515c0,0.097,0,0.394,0.196,0.583
			c0.053,0.053,0.17,0.142,0.355,0.142c0.339,0,0.479-0.283,0.541-0.43c0.042,0.021,0.587,0.293,0.628,0.313
			c-0.049,0.089-0.116,0.205-0.213,0.304c-0.249,0.257-0.6,0.403-0.988,0.403c-0.387,0-0.715-0.15-0.95-0.424
			c-0.207-0.242-0.326-0.597-0.326-0.938c0-0.338,0.11-0.672,0.309-0.904c0.229-0.268,0.564-0.415,0.967-0.415
			c0.38,0,0.72,0.134,0.957,0.367c0.111,0.111,0.19,0.254,0.248,0.365c-0.041,0.02-0.594,0.287-0.638,0.309
			c-0.121-0.332-0.359-0.426-0.531-0.426C-0.572,12.094-0.718,12.173-0.814,12.328"/>
	</g>
	<g id="g5989" transform="matrix(5.2716063,0,0,-5.2716063,757.89461,561.68998)">
		<path id="path5991" fill="#FFFFFF" d="M-8.312,12.955c-0.318,0-0.366,0.321-0.366,0.512c0,0.184,0.047,0.493,0.362,0.501
			c0.099,0.003,0.179-0.025,0.24-0.084c0.084-0.082,0.127-0.22,0.127-0.41C-7.95,13.045-8.147,12.955-8.312,12.955 M-7.54,14.193
			c-0.081,0.076-0.316,0.26-0.754,0.264c-0.33,0.002-0.605-0.101-0.794-0.289c-0.176-0.175-0.269-0.437-0.269-0.723
			c0-0.257,0.085-0.511,0.239-0.677c0.179-0.193,0.45-0.3,0.785-0.3c0.329,0,0.604,0.098,0.793,0.274
			c0.183,0.171,0.28,0.43,0.28,0.714C-7.26,13.733-7.367,14.028-7.54,14.193"/>
	</g>
	<g id="g5993" transform="matrix(5.2716063,0,0,-5.2716063,797.42318,552.03448)">
		<path id="path5995" fill="#FFFFFF" d="M-13.095,11.786c-0.087,0.045-0.164,0.063-0.488,0.137l-0.014,0.004
			c-0.242,0.06-0.3,0.072-0.3,0.149c0,0.046,0.024,0.121,0.182,0.121c0.194,0,0.367-0.105,0.491-0.182
			c0.025,0.022,0.329,0.3,0.367,0.334c-0.088,0.067-0.227,0.172-0.459,0.227c-0.143,0.033-0.277,0.049-0.41,0.049
			c-0.276,0-0.489-0.076-0.633-0.213c-0.113-0.109-0.177-0.276-0.177-0.421c0-0.374,0.319-0.477,0.491-0.527
			c0.165-0.049,0.316-0.074,0.38-0.084c0.072-0.011,0.206-0.028,0.206-0.136c0-0.095-0.109-0.138-0.217-0.138
			c-0.099,0-0.197,0.02-0.301,0.062c-0.134,0.057-0.222,0.13-0.286,0.193c-0.03-0.028-0.341-0.314-0.377-0.347
			c0.152-0.123,0.457-0.377,0.971-0.377c0.587,0,0.85,0.332,0.85,0.681C-12.82,11.518-12.918,11.691-13.095,11.786"/>
	</g>
	<g id="g5997" transform="matrix(5.2716063,0,0,-5.2716063,825.5483,552.03448)">
		<path id="path5999" fill="#FFFFFF" d="M-16.499,11.786c-0.087,0.045-0.164,0.063-0.489,0.137l-0.014,0.004
			c-0.242,0.06-0.3,0.072-0.3,0.149c0,0.046,0.024,0.121,0.182,0.121c0.194,0,0.368-0.105,0.491-0.182
			c0.024,0.022,0.329,0.3,0.367,0.334c-0.089,0.067-0.227,0.172-0.459,0.227c-0.143,0.033-0.277,0.049-0.41,0.049
			c-0.276,0-0.489-0.076-0.633-0.213c-0.113-0.109-0.177-0.276-0.177-0.421c0-0.374,0.319-0.477,0.49-0.527
			c0.165-0.049,0.316-0.074,0.381-0.084c0.072-0.011,0.206-0.028,0.206-0.136c0-0.095-0.109-0.138-0.216-0.138
			c-0.099,0-0.197,0.02-0.302,0.062c-0.134,0.057-0.221,0.13-0.285,0.193c-0.03-0.028-0.341-0.314-0.377-0.347
			c0.152-0.123,0.457-0.377,0.971-0.377c0.587,0,0.849,0.332,0.849,0.681C-16.224,11.518-16.322,11.691-16.499,11.786"/>
	</g>
	<g id="g6001" transform="matrix(5.2716063,0,0,-5.2716063,731.45754,540.78808)">
		<path id="path6003" fill="#FFFFFF" d="M-5.113,10.425h-0.654V8.571h0.679v0.87v0.001c0.003,0.116,0.012,0.425,0.465,0.425
			c0.041,0,0.109-0.003,0.15-0.006v0.592c-0.255-0.001-0.408-0.048-0.599-0.218L-5.113,10.2V10.425z"/>
	</g>
</g>
</svg>
