<?xml version="1.0" encoding="utf-8"?>
<!-- Generator: Adobe Illustrator 15.0.2, SVG Export Plug-In . SVG Version: 6.00 Build 0)  -->
<!DOCTYPE svg PUBLIC "-//W3C//DTD SVG 1.1//EN" "http://www.w3.org/Graphics/SVG/1.1/DTD/svg11.dtd">
<svg version="1.1" id="Layer_1" xmlns:svg="http://www.w3.org/2000/svg"
	 xmlns="http://www.w3.org/2000/svg" xmlns:xlink="http://www.w3.org/1999/xlink" x="0px" y="0px" width="88.25px" height="83.5px"
	 viewBox="88.25 -26.25 88.25 83.5" enable-background="new 88.25 -26.25 88.25 83.5" xml:space="preserve">
<path id="foreground" fill="#FFFFFF" d="M128.865-24.916c-1.134,0.026-2.329,0.402-3.19,1.143c-1.53,1.319-3.058,2.689-3.005,4.484
	c0.052,1.794,1.053,2.798,1.053,2.798s0.686,0.526,0,1.054c-0.686,0.528-8.81,5.7-8.388,16.358c0,0,0.211,2.773-0.105,5.728
	c-0.228,2.123,0.519,4.696,0.959,5.984c0.011,0.013,0.216,0.542-0.248,0.233c-2.202-1.376-4-3.445-5.507-6.015
	c-1.382-2.509-2.17-5.41-2.17-8.496c0-6.555,3.559-12.264,8.802-15.203c-7.192,1.983-12.495,8.719-12.495,16.718
	c0,0.612,0.03,1.218,0.09,1.813c0.059,1.379,0.211,3.581,0.598,4.46c0.581,1.319,0.527,4.167,0.527,4.642
	c0,0.475,0.159,16.09,9.392,16.038c0,0,4.401,0.109,4.431-1.685c0.026-1.583-0.425-1.75-0.843-2.667
	c-0.396-0.871-0.685-0.923-0.474-3.72c0,0,0.011-0.566,0.222-0.579c0.211-0.014,2.784,7.65,6.108,11.66
	c3.324,4.01,6.648,4.431,9.18,4.431c0,0,4.747,0.001,4.747-2.373c0-2.375-2.162-1.426-2.162-8.971s3.64-7.172,4.062-5.327
	c0.423,1.848,0.789,3.324,0.052,8.283c-0.739,4.959,1.269,5.54,3.114,5.54s11.556,0.314,13.244-27.438c0,0,0.209-4.483-1.268-8.335
	c0,0,0.635,7.387-3.958,11.344c-4.589,3.957-7.229,3.377-7.229,3.377s-2.213-0.16-3.11,0.948c-0.896,1.108-0.741,1.901-2.64,1.32
	c-1.899-0.58-1.907-1.053-3.648-0.842c-1.741,0.211-2.79,0.42-3.476-1.004c-0.686-1.425-1.453-2.342-2.876-2.606
	c-1.425-0.264-7.685-3.242-7.516-11.637c0.158-7.81,3.694-10.502,3.694-10.502s0.582-0.632,1.162-0.368s1.528,0.318,2.636-0.685
	s1.847-1.797,3.851-2.483c0,0,1.373-0.211,1.321-1.583c-0.054-1.371-1.164-4.376-2.588-5.272
	C130.591-24.744,129.747-24.937,128.865-24.916z M133.652,12.847c0.318-0.012,0.778,0.199,1.265,0.383
	c0.705,0.269,2.319,0.142,2.952,0.098c0.631-0.044,1.055,0.224,0.549,0.823c-0.698,0.827-1.531,0.796-2.584,0.869
	c-1.053,0.073-2.182-0.959-2.182-0.959c-0.061-0.102-0.572-0.647-0.336-1.034C133.392,12.906,133.508,12.852,133.652,12.847z
	 M128.262-3.987c1.219-1.496,1.899-1.688,2.955-1.688c1.055,0,2.52,0.677,2.953,2.321c0.477,1.794,0.718,2.069-0.994,4.071
	c-1.226,1.437-3.437,4.582-5.653,2.577C125.307,1.289,126.13-1.372,128.262-3.987z M148.079-1.194
	c-0.716-1.793-1.306-2.181-2.312-2.497c-1.008-0.316-2.605-0.11-3.516,1.328c-0.99,1.569-1.334,1.717-0.303,4.14
	c0.739,1.739,1.936,5.444,4.65,4.196C149.314,4.726,149.329,1.94,148.079-1.194z M136.391,10.581
	c0.564-0.884,1.881-1.184,2.645-1.208c0.996-0.031,0.982-0.892,0.982-0.892s0.071-0.879-3.534-1.229
	c-3.602-0.351-3.698,0.579-3.698,0.579s-0.171,0.844,0.805,1.055c0.744,0.161,1.977,0.704,2.377,1.668
	C136.045,10.788,136.268,10.793,136.391,10.581z M153.395-11.062c-0.605,0.198-1.556,0.146-2.545-0.973
	c-0.99-1.119-1.638-1.987-3.555-2.892c0,0-1.339-0.361-1.134-1.719c0.202-1.358,1.637-4.224,3.151-4.958
	c1.516-0.733,4.068-0.29,5.442,1.19c1.375,1.48,2.743,3.014,2.492,4.79c-0.251,1.777-1.358,2.663-1.358,2.663l0.02,0.003
	C155.381-12.271,153.395-11.062,153.395-11.062z"/>
<path id="WWF" fill="#FFFFFF" d="M106.272,39.526L106.272,39.526h2.686c0,0,0.696-0.126,0.97,0.58
	c0.323,0.833,1.652,6.166,1.652,6.166l1.904-2.818c0,0-0.776-3.946,0.585-3.928c1.642,0.021,2.556,0,2.556,0
	s0.654-0.062,1.063,1.027c0.481,1.284,1.654,5.805,1.654,5.805l2.71-6.177c0,0,0.373-0.655,0.97-0.655
	c0.634,0,1.036,0.444,0.896,0.953c-0.213,0.775-4.701,12.573-4.701,12.573s-0.298,0.708-0.933,0.708
	c-0.634,0-0.895-0.373-1.231-1.231c-0.335-0.858-2.462-6.604-2.462-6.604l-3.208,7.275c0,0-0.243,0.559-0.747,0.559
	c-0.597,0-0.821-0.261-1.119-0.82c-0.299-0.56-4.066-11.342-4.066-11.342S104.705,39.526,106.272,39.526z M126.11,39.526
	L126.11,39.526h2.687c0,0,0.696-0.126,0.97,0.58c0.323,0.833,1.653,6.166,1.653,6.166l1.903-2.818c0,0-0.777-3.946,0.584-3.928
	c1.641,0.021,2.557,0,2.557,0s0.654-0.062,1.062,1.027c0.482,1.284,1.655,5.805,1.655,5.805l2.71-6.177c0,0,0.373-0.655,0.969-0.655
	c0.637,0,1.037,0.444,0.896,0.953c-0.213,0.775-4.701,12.573-4.701,12.573s-0.299,0.708-0.932,0.708
	c-0.634,0-0.896-0.373-1.232-1.231s-2.461-6.604-2.461-6.604l-3.209,7.275c0,0-0.242,0.559-0.746,0.559
	c-0.597,0-0.821-0.261-1.12-0.82c-0.298-0.56-4.066-11.342-4.066-11.342S124.543,39.526,126.11,39.526z M145.965,53.761
	c0,0-0.926,0.078-0.926-1.373s0-11.977,0-11.977s0-0.897,1.318-0.897c1.32,0,9.023,0,9.023,0s1.093-0.052,1.093,1.003
	c0,1.056-1.014,0.95-1.014,0.95h-5.382c0,0-0.634,0-0.634,0.606c0,0.607,0,2.955,0,2.955h4.144c0,0,1.117,0,1.117,0.87
	c0,0.871-0.934,0.923-0.934,0.923h-4.352v5.759c0,0,0.063,1.181-0.702,1.181C148.19,53.761,145.965,53.733,145.965,53.761z"/>
</svg>
