<?xml version="1.0" encoding="utf-8"?>
<!-- Generator: Adobe Illustrator 15.0.2, SVG Export Plug-In . SVG Version: 6.00 Build 0)  -->
<!DOCTYPE svg PUBLIC "-//W3C//DTD SVG 1.1//EN" "http://www.w3.org/Graphics/SVG/1.1/DTD/svg11.dtd">
<svg version="1.1" id="Layer_1" xmlns="http://www.w3.org/2000/svg" xmlns:xlink="http://www.w3.org/1999/xlink" x="0px" y="0px"
	 width="103.667px" height="85px" viewBox="56.5 -22.833 103.667 85" enable-background="new 56.5 -22.833 103.667 85"
	 xml:space="preserve">
<path fill="#FFFFFF" d="M135.773,5.585c-0.465-4.65,0.926-15.373,1.191-16.949c0.265-2.208-1.789-2.997-3.113-2.523
	c-2.252,0.867-7.087,2.444-12.65,2.523c-5.961,0.079-13.314-4.257-15.234-7.174c-1.854,2.917-9.207,7.253-15.168,7.174
	c-5.563-0.079-10.399-1.656-12.65-2.523c-1.391-0.474-3.444,0.315-3.113,2.523c0.198,1.576,1.655,12.298,1.191,16.949
	c-0.529,5.361-5.1,17.266-2.649,27.83c3.047,13.48,16.228,15.846,21.262,17.343c4.438,1.34,9.074,4.888,11.127,6.938
	c2.054-2.05,6.689-5.598,11.127-6.938c5.1-1.497,18.28-3.863,21.328-17.343C140.872,22.851,136.303,10.946,135.773,5.585z
	 M136.348,34.562c-2.189,6.877-8.261,11.553-18.555,14.294c-3.489,0.906-8.957,3.675-11.54,6.356l-0.287,0.296l-0.286-0.296
	c-2.596-2.694-8.027-5.462-11.471-6.356c-10.267-2.715-16.358-7.391-18.625-14.294c-2.349-7.222-0.581-15.208,0.839-21.623
	c0.531-2.396,1.032-4.661,1.264-6.613c0.657-4.921-0.591-14.537-0.792-15.733c-0.236-1.2-0.301-1.989,0.066-2.435
	c0.182-0.221,0.448-0.333,0.79-0.333c0.344,0,0.781,0.108,1.461,0.359c2.119,0.757,7.213,1.958,11.846,1.958
	c0.263,0,0.527-0.003,0.788-0.012c4.726-0.151,10.372-3.074,13.87-5.903l0.25-0.202l0.25,0.202c3.499,2.828,9.165,5.75,13.938,5.903
	c4.793,0.148,10.326-1.146,12.569-1.948c0.702-0.25,1.146-0.357,1.488-0.357c0.339,0,0.603,0.109,0.785,0.324
	c0.362,0.43,0.317,1.19,0.106,2.444c-0.273,1.224-1.441,10.87-0.857,15.733c0.241,1.891,0.728,4.077,1.242,6.393
	C136.93,19.197,138.724,27.259,136.348,34.562z"/>
<g>
	<path fill="#FFFFFF" d="M122.393,2.827c-0.265-0.395-0.596-0.946-1.191-0.868c-0.861,0.237-1.126,1.183-1.259,1.893
		c-0.397,2.522-0.663,5.597,0.133,8.041c0.198,0.394,0.463,1.183,1.126,1.104c0.795-0.236,0.86-1.104,1.125-1.814
		C122.855,8.581,122.924,5.507,122.393,2.827z"/>
	<path fill="#FFFFFF" d="M106.297,13.469c-0.265,1.34-0.595,3.154-0.595,4.495c0.463-0.238,1.06-0.395,1.456-0.868l-0.661-3.704
		L106.297,13.469z"/>
	<path fill="#FFFFFF" d="M101.065,34.282l-0.199,0.63c-0.265,1.656-0.663,3.232-0.729,4.888c0.729-0.079,1.325-0.552,1.987-0.947
		c0.066-0.236,0.066-0.394,0-0.552C101.728,36.962,101.595,35.542,101.065,34.282z"/>
	<path fill="#FFFFFF" d="M109.742,28.921c-0.332-0.237-0.728-0.315-1.191-0.315c-0.332,0-0.729,0.237-0.795,0.552
		c-0.133,1.499-0.066,3.232,0,4.81c0.066,0.236,0.33,0.236,0.529,0.236c0.596,0,1.125-0.394,1.391-0.867
		C110.14,31.996,110.537,30.183,109.742,28.921z"/>
	<path fill="#FFFFFF" d="M134.713,12.891c-0.52-2.333-1.009-4.537-1.257-6.467c-0.604-5.051,0.583-14.714,0.868-15.983
		c0.061-0.367,0.26-1.549,0.064-1.779c-0.029-0.035-0.111-0.042-0.177-0.042c-0.313,0-0.847,0.178-1.221,0.312
		c-2.171,0.776-7.364,2.006-12.05,2.006c-0.272,0-0.543-0.004-0.812-0.012c-4.845-0.155-10.545-3.033-14.162-5.881
		c-3.371,2.656-8.977,5.716-14.095,5.881c-0.271,0.008-0.542,0.012-0.813,0.012c-4.733,0-9.944-1.23-12.117-2.006
		c-0.364-0.134-0.878-0.312-1.19-0.312c-0.064,0-0.147,0.008-0.176,0.043c-0.092,0.112-0.148,0.512,0.102,1.788
		c0.206,1.221,1.467,10.964,0.799,15.975c-0.235,1.985-0.741,4.268-1.276,6.685C75.8,19.433,74.059,27.3,76.34,34.315
		c2.207,6.718,7.949,11.095,18.071,13.772c3.426,0.89,8.772,3.589,11.556,6.287c2.775-2.685,8.156-5.386,11.623-6.287
		c10.01-2.665,15.898-7.169,18.002-13.77C137.9,27.22,136.133,19.275,134.713,12.891z M116.962,3.142
		c0.132,0,0.266-0.158,0.397-0.158c-0.066,0.473-0.397,0.946-0.397,1.419v5.282c0,1.892,0,3.784,0.132,5.518
		c0.133,0.237,0.332,0.396,0.529,0.474l-0.065,0.157c-0.795,0.552-1.589,1.025-2.45,1.419c0.396-0.709,0.529-1.655,0.463-2.68
		l-0.131-7.095l-0.134-2.444c-0.065-0.236-0.331-0.394-0.53-0.551C115.439,3.93,116.233,3.693,116.962,3.142z M113.982,5.27
		c0.264,1.34,0.131,2.759,0.264,4.021c-0.662-0.71-0.332-1.892-1.324-2.365c-0.332-0.157-0.529,0.158-0.729,0.395l-0.066,0.315
		v6.623l0.066,3.547c0.131,0.316,0.396,0.553,0.729,0.71c-0.729,0.63-1.523,1.104-2.384,1.34l0.198-1.104v-5.755l-0.133-4.73
		c-0.133-0.236-0.398-0.236-0.596-0.079c-0.862,0.868-0.664,2.208-1.258,3.154h-0.068c0.133-1.025,0-2.207,0-3.154l0.133-0.315
		c1.59-0.867,3.246-1.892,4.835-2.759C113.782,5.112,113.982,5.191,113.982,5.27z M107.689,19.854l-0.332-1.182
		c-0.066-0.236-0.331-0.158-0.53-0.079c-0.464,0.473-1.324,0.552-1.656,1.183c0,0.945-0.463,1.734-0.264,2.681
		c0.132,0.315,0.529,0.315,0.927,0.315c-1.034,0.615-1.942,1.304-3.031,1.776c-0.005,0.012-0.01,0.024-0.015,0.037h-0.067
		c0.028-0.012,0.054-0.025,0.082-0.037c1.177-2.83,1.312-6.046,2.038-8.95c0.596-2.444,0.596-5.124,1.854-7.332l0.133-0.079
		c-0.066,2.208,0.861,4.178,1.192,6.307c0.463,1.735,0.794,3.627,1.323,5.361c0.066,0.236,0.465,0.395,0.465,0.552
		c-0.729,0.552-1.523,1.025-2.318,1.34C107.622,21.195,107.754,20.485,107.689,19.854z M102.787-6.476
		c1.523-0.946,3.112-1.656,4.636-2.522c0.333-0.079,0.2,0.394,0.333,0.551c0.066,0.709,0.198,1.419,0.131,2.287
		c-0.197-0.552-0.729-1.183-1.39-1.183c-0.795,0-1.458,0.552-1.789,1.183c-0.132,1.104-0.132,2.128,0.066,3.231
		c0.464-0.157,0.862-0.63,1.326-0.867c1.125-0.709,2.98-0.157,3.444-1.734l0.065-0.079c0.199,0.394-0.065,0.947-0.199,1.419
		c-1.125,1.892-3.841,0.315-4.702,2.365c0.066,1.34-0.198,2.838,0.199,4.099c0.199,0.238,0.53,0.159,0.794,0.08
		c1.789-0.551,2.782-2.286,3.246-3.863h0.066c-0.066,0.946-0.066,2.05-0.266,2.997c-1.986,1.261-3.974,2.443-5.96,3.469
		c0.926-1.813,0.265-4.257,0.463-6.385c-0.132-1.261-0.132-2.365-0.132-3.626c0-0.237-0.265-0.473-0.464-0.631
		c-0.199-0.079-0.464-0.079-0.662-0.158C102.125-6.082,102.456-6.318,102.787-6.476z M101.86,12.602
		c-0.066-0.157-0.265-0.315-0.397-0.315c0.662-0.551,1.523-1.024,2.384-1.419h0.199v0c-0.398,0.71-0.398,1.578-0.597,2.365
		l-0.396,2.129l-1.126,6.148c-0.53,1.498-0.265,3.547-1.391,4.73c0-1.026-0.331-1.893-0.53-2.918l-1.655-6.306
		c-0.199-0.789-0.397-1.814-1.392-2.05v-0.08c0.927-0.551,1.789-1.261,2.782-1.576c-0.397,0.473-0.265,1.261-0.199,1.813
		c0.265,1.813,0.795,3.469,1.192,5.204c0.067,0,0.132,0.079,0.199,0.079c0.463-1.498,0.53-3.153,0.861-4.652
		C101.927,14.73,102.39,13.548,101.86,12.602z M96.231-2.535c-0.597,1.104-0.132,2.76-0.199,4.1c0,0.157,0.067,0.157,0.133,0.236
		c0.861-0.236,1.59-0.946,2.451-1.341l0.132-0.315l-0.066-3.075c-0.066-0.237-0.265-0.473-0.53-0.552h-0.198
		c0-0.315,0.332-0.236,0.463-0.473c0.662-0.236,1.258-0.867,2.053-1.024c-0.132,0.316-0.265,0.709-0.331,1.024l0.066,8.988
		c0.066,0.236,0,0.473,0.265,0.709l0.397,0.237c-0.596,0.553-1.523,0.946-2.251,1.34c0-0.079-0.066-0.236,0.066-0.236l0.133-0.71
		l-0.066-4.651c-0.332-0.394-0.662,0.079-0.994,0.158c-0.53,0.472-1.259,0.708-1.722,1.182c0,1.498-0.132,3.153,0.133,4.572
		c0.066,0.315,0.331,0.473,0.596,0.552h0.265c-0.861,0.709-1.854,1.262-2.848,1.655c0.199-0.394,0.331-0.946,0.397-1.418
		l-0.198-8.752c0-0.393-0.464-0.551-0.663-0.788C94.442-1.746,95.37-2.219,96.231-2.535z M86.759,1.171
		c1.789-0.946,3.511-2.129,5.365-2.996l0.132,0.315c0.265,1.42,0.066,2.917,0.729,4.1c-1.06-0.552-0.861-1.813-1.855-2.443
		c-0.265-0.158-0.463,0.157-0.595,0.315c-0.133,3.627,0.132,6.938,0.198,10.406c0.132,0.237,0.331,0.395,0.53,0.474h0.397
		c-0.993,0.709-2.186,1.182-3.245,1.813c1.06-1.104,0.53-2.838,0.596-4.178l-0.132-7.253c-0.067-0.157,0-0.395-0.198-0.552
		c-0.862,0.236-0.928,1.34-1.259,2.05c-0.199,1.024-0.265,2.208-1.126,2.917h-0.133C86.958,4.718,86.295,2.747,86.759,1.171z
		 M85.5,22.062L85.5,22.062c-0.861,1.103-0.729,2.996-0.332,4.257c-0.53,0-0.795-0.473-1.126-0.788c-0.198,0-0.53,0.078-0.662-0.079
		c0.199-0.317,0.332-0.71,0.332-1.025c0-0.552-0.199-1.025-0.729-1.262c-0.662-0.393-1.589-0.314-2.251,0.158
		c-0.53,0.552-0.928,1.183-0.597,1.892c0.928,2.208,3.775,2.917,4.902,5.125c0.662,1.656,0.463,3.785-0.596,5.203
		c-0.927,1.104-2.318,1.734-3.908,1.498c-0.993-0.236-1.92-1.024-2.186-1.971c-0.331-1.024,0.066-1.892,0.794-2.443
		c0.53-0.395,1.326-0.395,1.789,0c0.265,0.157,0.398,0.394,0.398,0.709c-0.133,0.236-0.398-0.079-0.596,0.079
		c-0.265,0.157-0.597,0.394-0.663,0.631c0,0.472-0.066,0.709,0.133,1.024c0.463,0.552,1.06,0.709,1.789,0.631
		c0.861-0.236,1.788-1.183,1.92-2.207c0.397-3.707-4.438-4.258-5.232-7.411c-0.398-1.498,0.132-2.918,1.325-3.705
		c1.192-0.789,2.715-0.71,3.974-0.157c0.397-0.317,0.993-0.631,1.523-0.474V22.062z M93.25,30.34
		c-0.795,0.474-1.59,1.025-2.517,1.34c0.662-1.025,0.265-2.129-0.066-3.154c-0.199-0.63-0.332-0.472-0.663-0.314
		c-0.397,0.157-0.927,0.472-1.126,0.552c-0.398,0.157-0.398,0.709-0.463,1.024c-0.132,0.631-0.795,2.366,0.198,2.839
		c0.198,0,0.265,0.079,0.397,0c-0.861,0.868-2.12,1.419-3.113,1.971c0.133-0.473,0.398-0.869,0.53-1.262
		c0.927-4.415,1.589-8.987,2.45-13.402c0.332-0.709,0.597-1.655,1.458-1.892c-0.331,0.316-0.331,0.867-0.331,1.262
		c0.994,3.311,1.789,6.701,2.782,10.012C92.853,29.709,93.316,29.946,93.25,30.34z M93.978,29.866l-0.066-0.08l0.066-1.418
		l-0.066-7.174l-0.066-3.074c-0.199-0.472-0.663-0.71-1.126-0.71c1.06-0.63,1.988-1.418,3.047-1.813
		c-0.53,0.789-0.397,1.971-0.464,2.917c0,2.838,0,5.677,0.133,8.514c0.132,0.236,0.066,0.473,0.397,0.552
		c0.332,0.158,0.53-0.078,0.795-0.236c1.06-1.103,0.464-2.917,1.723-3.942h0.264c-0.397,0.947-0.463,1.971-0.397,2.996
		c-0.066,0.315,0,0.71-0.066,1.025C96.827,28.29,95.369,29.078,93.978,29.866z M103.052,43.348c0.332-1.025-0.199-2.128-0.464-3.076
		c-0.066-0.314-0.463-0.157-0.662-0.078c-0.795,0.395-1.59,0.788-2.252,1.34c-0.133,1.104-0.53,2.207-0.397,3.311
		c0.132,0.315,0.397,0.394,0.662,0.394l-0.066,0.157c-0.927,0.631-1.92,1.261-2.914,1.656c0.066-0.395,0.463-0.631,0.596-1.025
		c0.728-1.892,0.927-3.942,1.325-5.99c0.53-2.839,1.192-5.678,1.656-8.514c0.331-0.869,0.53-1.736,1.325-2.366
		c0.199,2.365,0.994,4.494,1.391,6.78l1.325,5.675c0,0.316,0.397,0.473,0.53,0.631C104.443,42.795,103.715,43.111,103.052,43.348z
		 M112.988,41.141c-2.188,0.079-3.312-2.208-4.107-3.785c-0.33-0.788-0.596-1.577-0.795-2.286l-0.198-0.158l-0.132,0.158
		c-0.066,1.577,0.066,3.231,0,4.809c0.132,0.236,0.53,0.236,0.53,0.473c-0.663,0.553-1.392,0.947-2.186,1.261
		c0.331-1.418-0.067-2.916,0.065-4.414c-0.065-2.365-0.065-4.966-0.132-7.411c-0.132-0.236-0.331-0.472-0.596-0.472h-0.396
		c0.396-0.552,1.125-0.868,1.722-1.183c1.06-0.63,2.648-1.024,3.775-0.316c0.463,0.316,0.86,0.79,1.125,1.183
		c0.661,1.419,0.198,3.233-0.597,4.336c-0.33,0.71-1.457,0.867-1.258,1.813c0.465,1.892,0.992,3.862,2.716,5.045
		c0.397,0.236,0.927,0.236,1.39,0.158C113.914,40.825,113.385,41.061,112.988,41.141z M118.287,34.359
		c0.197-0.708,0.065-1.339,0.065-2.048l-0.065-5.677c-0.066-0.079-0.133,0-0.199,0.079c-0.529,1.499-0.926,2.997-1.523,4.493
		c-0.265-0.078-0.463-0.393-0.596-0.709c-0.463-0.71-0.729-1.498-1.258-2.207c-0.133,0-0.266,0.079-0.266,0.157
		c0.131,2.523-0.066,4.73,0.131,7.253c0.199,0.157,0.465,0.316,0.598,0.552c-0.662,0.551-1.524,0.946-2.318,1.34
		c0.133-0.553,0.463-1.104,0.463-1.813l-0.065-5.203l-0.133-4.414c-0.132-0.473-0.596-0.709-0.993-0.868
		c0.596-0.394,1.192-0.946,1.92-1.024c0.729,1.182,1.393,2.443,2.121,3.625c0.265,0.158,0.265-0.236,0.396-0.315
		c0.463-1.971,1.061-3.862,1.656-5.833c0.529-0.552,1.125-0.789,1.787-1.104c0,0.472-0.266,0.946-0.266,1.498v4.178l0.135,6.149
		c0.065,0.316,0.33,0.473,0.595,0.63C119.742,33.651,119.082,34.045,118.287,34.359z M119.215,13.391
		c-1.393-2.209-1.657-5.283-1.193-7.963c0.397-1.813,1.06-4.257,3.377-4.652c0.928-0.079,1.592,0.552,2.055,1.261
		c1.324,3.154,1.125,7.096-0.266,10.17c-0.464,0.789-1.06,1.656-1.986,1.813C120.472,14.179,119.742,13.863,119.215,13.391z
		 M128.885,17.411c-0.795,2.523-1.922,4.889-2.783,7.411c-0.066,1.261-0.066,2.758,0.066,4.021c0,0.237,0.332,0.394,0.465,0.631
		c-0.796,0.631-1.789,1.024-2.65,1.655c0.133-0.552,0.463-1.024,0.529-1.655c0-1.499,0-3.075-0.198-4.495
		c-0.729-1.576-1.523-3.153-2.384-4.729l-0.529-0.395c0.859-0.552,1.654-1.182,2.582-1.498c-0.133,0.552-0.463,1.418-0.066,2.049
		c0.529,0.946,0.795,1.893,1.325,2.758c0.265,0.08,0.265-0.314,0.463-0.393c0.597-1.971,1.656-3.705,1.854-5.755
		c0-0.709-0.33-1.419-0.992-1.655c-0.066-0.159,0.066-0.315,0.066-0.395c0.527-0.315,1.19-0.236,1.721,0
		c0.266,0.079,0.332,0.395,0.531,0.631C129.148,16.07,129.148,16.859,128.885,17.411z M130.011,9.449
		c-0.729-0.395-1.061-1.262-1.392-2.05c-0.795-1.419-1.259-3.075-2.186-4.493l-0.066,0.157l0.066,6.623
		c0.066,0.236,0.331,0.394,0.529,0.472c-0.529,0.553-1.259,0.868-1.92,1.184c0-0.315,0.198-0.631,0.198-1.025
		c0-3.468,0-7.017-0.132-10.406c-0.133-0.474-0.729-0.553-1.127-0.709c0.529-0.474,1.191-0.868,1.855-1.184
		c0.266-0.079,0.463,0.158,0.529,0.395c0.729,1.419,1.258,2.996,2.053,4.415c0.066,0,0.066-0.079,0.133-0.079
		c0-2.286,0.397-4.493,0.199-6.78c-0.066-0.473-0.929-0.63-0.664-1.183c0.332-0.236,0.664-0.552,1.127-0.394
		c0.398,0,0.597,0.395,0.861,0.632c0.464,1.418,0,2.995-0.133,4.414c-0.396,3.311-0.529,6.859,0.464,9.854
		C130.474,9.527,130.143,9.527,130.011,9.449z"/>
	<path fill="#FFFFFF" d="M89.475,22.93c-0.199,1.418-0.596,3.232-0.596,4.572c0.53-0.237,1.126-0.394,1.457-0.868l-0.596-3.783
		L89.475,22.93z"/>
</g>
</svg>
