<?xml version="1.0" encoding="utf-8"?>
<!-- Generator: Adobe Illustrator 15.0.2, SVG Export Plug-In . SVG Version: 6.00 Build 0)  -->
<!DOCTYPE svg PUBLIC "-//W3C//DTD SVG 1.1//EN" "http://www.w3.org/Graphics/SVG/1.1/DTD/svg11.dtd">
<svg version="1.1"
	 id="svg4252" xmlns:svg="http://www.w3.org/2000/svg" xmlns:rdf="http://www.w3.org/1999/02/22-rdf-syntax-ns#" xmlns:cc="http://creativecommons.org/ns#" xmlns:dc="http://purl.org/dc/elements/1.1/"
	 xmlns="http://www.w3.org/2000/svg" xmlns:xlink="http://www.w3.org/1999/xlink" x="0px" y="0px" width="142px" height="34.553px"
	 viewBox="79 0 142 34.553" enable-background="new 79 0 142 34.553" xml:space="preserve">
<g id="layer1" transform="translate(0,-979.36218)">
	<path id="path94" fill="#FFFFFF" d="M201.68,1001.837c-1.561-0.855-1.593-2.044-1.51-2.48c0.08-0.444,0.389-0.25,0.582-0.25
		c1.025,0,2.105-0.305,3.436-1.663c1.5-1.531,1.969-4.934-0.332-7.149c-2.486-2.392-5.131-1.974-6.83,0.175
		c-0.352,0.439-1.201,0.765-1.94,0.738c-1.091-0.042-0.403,0.819-0.403,0.998c0,0.182-0.166,0.306-0.264,0.278
		c-0.369-0.107-0.221,0.444-0.221,0.61c0,0.165-0.15,0.25-0.233,0.25c-0.464,0-0.338,0.414-0.322,0.526
		c0.014,0.111-0.026,0.302-0.181,0.387c-0.145,0.082-0.316,0.444-0.316,0.719c0,0.5,0.457,0.847,1.219,1.416
		c0.761,0.567,0.857,1.107,0.873,1.497c0.012,0.387,0.048,1.011,0.222,1.427c0.208,0.498,0.18,1.413-0.874,1.454
		c-1.285,0.052-3.574,1.081-3.768,1.151c-0.727,0.259-1.684,0.351-2.436,0.161c-0.404-0.284-0.789-0.595-1.153-0.93
		c-0.149-0.518,0.111-1.074,0.376-1.449c0.428,0.429,1.064,0.401,1.424,0.417c0.36,0.012,2.121-0.265,2.371-0.348
		c0.25-0.085,0.36-0.056,0.515,0c0.669,0.244,1.591,0.317,1.966-0.97c0.373-1.289-0.513-0.928-0.625-0.873
		c-0.109,0.056-0.262,0.041-0.207-0.069c0.162-0.328-0.082-0.292-0.222-0.305c-0.356-0.036-0.832,0.345-0.983,0.485
		c-0.154,0.14-0.303,0.125-0.359,0.097c-0.48-0.237-1.901,0.106-2.342-0.666c0.04-0.207-0.363-3.338-0.568-3.88
		c-0.047-0.113-0.086-0.303,0.055-0.511c0.361-0.542,1.355,0.042,1.898,0.029c0.646-0.018,0.752-0.288,0.928-0.507
		c0.171-0.212,0.298-0.093,0.389-0.152c0.117-0.077,0.006-0.229,0.047-0.312c0.043-0.084,0.091-0.043,0.201-0.14
		c0.113-0.097-0.014-0.304,0.043-0.387c0.158-0.242,0.594-0.048,0.332-0.679c-0.145-0.346,0.056-0.721,0.25-0.971
		c0.315-0.404,1.525-2.108-0.608-3.879c-2.04-1.688-4.103-1.553-5.434-0.11c-1.329,1.441-0.665,3.546-0.525,4.1
		c0.138,0.555-0.261,1.059-0.722,1.275c-0.363,0.172-1.192,0.727-1.819,1.272c0.097-4.523,2.841-8.498,7.05-10.191
		c0.18,0.226,0.379,0.438,0.593,0.636c-0.464,0.342-1.489,1.258-1.489,1.258s0.141,0.021,0.271,0.052
		c0.089,0.021,0.279,0.081,0.279,0.081s0.9-0.768,1.324-1.073c0.332,0.25,0.688,0.459,1.07,0.627
		c-0.203,0.346-0.718,1.312-0.718,1.312s0.122,0.069,0.227,0.14c0.104,0.072,0.172,0.133,0.172,0.133s0.56-1.055,0.771-1.409
		c0.471,0.159,0.964,0.249,1.461,0.274c0,0.137,0,1.771,0,1.93c-0.278-0.007-0.987-0.036-1.274-0.066l-0.182-0.018l0.102,0.151
		c0.077,0.111,0.136,0.22,0.188,0.322l0.021,0.043l0.048,0.002c0.209,0.018,0.855,0.041,1.099,0.046c0,0.156,0,3.519,0,3.519h0.487
		c0,0,0-0.676,0-0.807c0.716-0.034,1.312-0.083,2.031-0.145l0.029-0.002l0.633-0.562l-0.344,0.032
		c-0.761,0.099-1.427,0.144-2.036,0.178c0,0-0.207,0.011-0.313,0.018c0-0.161,0-2.087,0-2.231c0.883-0.02,1.769-0.143,2.633-0.371
		c0.237,0.583,0.682,1.99,0.682,1.99l0.459-0.144c0,0-0.441-1.398-0.678-1.98c0.734-0.226,1.438-0.527,2.109-0.896
		c0.537,0.664,1.004,1.388,1.389,2.157c-0.348,0.162-0.98,0.386-0.98,0.386c0.508,0.053,0.895,0.174,0.895,0.174
		s0.175-0.077,0.291-0.127c0.045,0.099,0.134,0.306,0.134,0.306l0.63,0.281l-0.071-0.177c0,0-0.21-0.499-0.261-0.617
		c0.67-0.329,1.328-0.708,1.959-1.132c1.199,1.831,1.83,3.958,1.83,6.154C206.125,996.529,204.379,999.779,201.68,1001.837z
		 M193.634,981.69c-0.689,0.303-1.356,0.667-1.98,1.09c-0.19-0.167-0.36-0.345-0.519-0.53
		C191.938,981.968,192.779,981.781,193.634,981.69z M192.958,983.597c-0.318-0.134-0.618-0.305-0.901-0.504
		c0.633-0.42,1.314-0.778,2.027-1.068C193.68,982.526,193.304,983.051,192.958,983.597z M194.618,982.122c0,0.367,0,1.699,0,1.853
		c-0.407-0.02-0.808-0.093-1.199-0.212C193.782,983.198,194.183,982.65,194.618,982.122z M195.105,984.46
		c0.504-0.021,1-0.114,1.479-0.274c0.356,0.598,0.677,1.224,0.96,1.868c-0.797,0.205-1.617,0.32-2.439,0.338
		C195.105,986.234,195.105,984.599,195.105,984.46z M195.105,982.1c0.431,0.523,0.838,1.077,1.213,1.663
		c-0.396,0.12-0.802,0.193-1.213,0.213C195.105,983.824,195.105,982.469,195.105,982.1z M197.687,983.092
		c-0.285,0.201-0.586,0.371-0.903,0.504c-0.34-0.538-0.721-1.065-1.133-1.577C196.363,982.311,197.047,982.67,197.687,983.092z
		 M198.604,982.254c-0.158,0.189-0.334,0.365-0.517,0.529c-0.624-0.423-1.282-0.788-1.97-1.089
		C196.973,981.787,197.804,981.973,198.604,982.254z M199.993,985.097c-0.632,0.341-1.296,0.618-1.978,0.826
		c-0.286-0.653-0.614-1.298-0.979-1.913c0.375-0.167,0.736-0.377,1.068-0.626C198.795,983.883,199.43,984.461,199.993,985.097z
		 M199.082,982.433c0.939,0.377,1.821,0.886,2.631,1.509c-0.404,0.332-0.84,0.639-1.295,0.914c-0.576-0.662-1.223-1.263-1.931-1.789
		C198.703,982.871,198.899,982.66,199.082,982.433z M204.025,986.327c-0.604,0.403-1.24,0.771-1.896,1.093
		c-0.383-0.776-0.855-1.512-1.401-2.192c0.483-0.293,0.942-0.622,1.369-0.979C202.824,984.858,203.472,985.558,204.025,986.327z
		 M194.863,981.139c-6.475,0-11.736,5.265-11.736,11.738c0,6.472,5.262,11.739,11.736,11.739c6.472,0,11.74-5.267,11.74-11.739
		C206.604,986.404,201.335,981.139,194.863,981.139"/>
	<path id="path98" fill="#FFFFFF" d="M182.062,984.259l-0.184,0.161c-0.688,0.611-2.26,2.219-2.019,3.985
		c0.001,0.004,0.024,0.124,0.024,0.124c0,0.003,0.076,0.349,0.076,0.349l0.221-0.201c0.965-0.882,1.684-2.375,1.982-4.098
		l0.082-0.485L182.062,984.259"/>
	<path id="path102" fill="#FFFFFF" d="M178.866,987.308l-0.077,0.213c-0.109,0.294-0.307,0.914-0.414,1.74
		c-0.148,1.164-0.117,2.81,0.896,4.043c-0.001-0.002,0.114,0.146,0.114,0.146l0.114,0.148l0.15-0.749
		c0.168-1.321-0.051-4.092-0.539-5.333l-0.165-0.42L178.866,987.308"/>
	<path id="path106" fill="#FFFFFF" d="M177.701,992.076l-0.012,0.217c-0.09,1.189-0.026,4.115,2.345,5.668
		c0.001,0,0.278,0.183,0.278,0.183l-0.012-0.335c-0.041-1.109-1.335-4.426-2.309-5.614l-0.276-0.335L177.701,992.076"/>
	<path id="path110" fill="#FFFFFF" d="M178.107,997.315l0.043,0.2c0.346,1.682,1.943,4.405,4.405,5.197l0.335,0.11l-0.119-0.334
		c-0.462-1.257-2.834-4.189-4.36-5.155l-0.344-0.218L178.107,997.315"/>
	<path id="path114" fill="#FFFFFF" d="M183.06,986.793l-0.196,0.117c-1.833,1.12-2.693,2.475-2.629,4.149
		c0,0.001,0.017,0.382,0.017,0.382l0.269-0.223c0.992-0.82,2.232-2.92,2.6-4.11l0.132-0.434L183.06,986.793"/>
	<path id="path118" fill="#FFFFFF" d="M181.979,990.456l-0.139,0.13c-0.469,0.449-1.989,2.067-1.856,4.068
		c0.019,0.305,0.09,0.634,0.21,0.979l0.105,0.318l0.197-0.273c0.727-1.022,1.688-3.719,1.637-4.973l-0.014-0.38L181.979,990.456"/>
	<path id="path122" fill="#FFFFFF" d="M182.057,993.928l-0.102,0.152c-0.767,1.139-1.158,2.307-1.133,3.382
		c0.022,0.796,0.273,1.559,0.754,2.266l0.162,0.237l0.133-0.252c0.332-0.622,0.596-2.64,0.555-4.237
		c-0.012-0.563-0.068-1.03-0.162-1.347l-0.102-0.353L182.057,993.928"/>
	<path id="path126" fill="#FFFFFF" d="M182.946,997.64l-0.048,0.159c-0.23,0.739-0.339,1.462-0.318,2.147
		c0.043,1.551,0.729,2.765,2.043,3.606l0.223,0.14l0.049-0.298c0-0.004,0.018-0.239,0.018-0.239
		c-0.035-1.259-0.977-4.438-1.713-5.406L183,997.479L182.946,997.64"/>
	<path id="path130" fill="#FFFFFF" d="M180.592,1002.536L180.592,1002.536z M180.362,1002.561l0.096,0.159
		c0.986,1.655,2.663,3.792,5.796,3.244l0.266-0.044l-0.15-0.222c-0.584-0.871-4.391-3.017-5.736-3.237l-0.369-0.06L180.362,1002.561
		"/>
	<path id="path134" fill="#FFFFFF" d="M185,1006.764l-0.492,0.135l0.473,0.194c1.992,0.815,4.49,1.057,5.938,0.567
		c0.544-0.184,0.877-0.481,1.279-0.877c2.55,0.265,4.94,2.386,6.334,4.117l0.071,0.087l0.109-0.037
		c0.154-0.052,0.397-0.239,0.497-0.346l0.103-0.107l-0.091-0.117c-1.452-1.899-3.726-3.075-3.827-3.123
		C193.35,1006.257,189.736,1005.482,185,1006.764"/>
	<path id="path138" fill="#FFFFFF" d="M185.104,1001.463l0.028,0.171c0.298,1.874,1.061,4.339,4.232,4.066l0.203-0.018l-0.049-0.196
		c-0.217-0.854-3.123-3.334-4.135-4.035l-0.306-0.157L185.104,1001.463"/>
	<path id="path142" fill="#FFFFFF" d="M207.529,984.094l0.08,0.485c0.297,1.723,1.019,3.216,1.982,4.098l0.219,0.201
		c0,0,0.08-0.346,0.08-0.349c0,0,0.021-0.119,0.023-0.124c0.242-1.766-1.333-3.374-2.019-3.985l-0.183-0.161L207.529,984.094"/>
	<path id="path146" fill="#FFFFFF" d="M210.83,987.096l-0.166,0.42c-0.486,1.24-0.709,4.012-0.54,5.333l0.148,0.749l0.118-0.148
		c0,0,0.114-0.147,0.113-0.146c1.008-1.233,1.044-2.879,0.895-4.043c-0.105-0.826-0.305-1.445-0.411-1.74l-0.081-0.213
		L210.83,987.096"/>
	<g>
		<g id="g150" transform="matrix(2.4815127,0,0,-2.4815127,-1097.8336,1140.346)">
			<g id="g156" transform="translate(563.252,54.255)">
				<path id="path158" fill="#FFFFFF" d="M-35.392,5.582l-0.112-0.135c-0.391-0.479-0.915-1.815-0.93-2.262L-36.44,3.05l0.114,0.074
					c0.955,0.626,0.98,1.805,0.946,2.284l-0.006,0.087L-35.392,5.582"/>
			</g>
		</g>
	</g>
	<path id="path162" fill="#FFFFFF" d="M211.707,997.115l-0.343,0.218c-1.524,0.966-3.899,3.898-4.36,5.155l-0.125,0.334l0.34-0.11
		c2.463-0.792,4.062-3.516,4.404-5.197l0.043-0.2L211.707,997.115"/>
	<path id="path166" fill="#FFFFFF" d="M206.615,986.617l0.126,0.437c0.341,1.2,1.541,3.321,2.517,4.162l0.264,0.226l0.021-0.381
		c0.1-1.671-0.732-3.044-2.542-4.199l-0.192-0.121L206.615,986.617"/>
	<path id="path170" fill="#FFFFFF" d="M207.656,990.326l-0.018,0.38c-0.047,1.254,0.913,3.951,1.643,4.973l0.195,0.273l0.107-0.318
		c0.119-0.345,0.189-0.674,0.207-0.979c0.132-2.001-1.391-3.619-1.858-4.068l-0.136-0.13L207.656,990.326"/>
	<path id="path174" fill="#FFFFFF" d="M207.613,993.775l-0.102,0.353c-0.094,0.317-0.151,0.784-0.164,1.347
		c-0.038,1.597,0.225,3.616,0.557,4.237l0.132,0.252l0.161-0.237c0.482-0.707,0.732-1.47,0.754-2.266
		c0.027-1.075-0.366-2.243-1.132-3.382l-0.103-0.152L207.613,993.775"/>
	<path id="path178" fill="#FFFFFF" d="M206.775,997.479l-0.204,0.269c-0.731,0.968-1.672,4.147-1.71,5.406
		c0,0,0.02,0.235,0.02,0.239l0.048,0.298l0.222-0.14c1.313-0.841,2-2.055,2.047-3.606c0.016-0.685-0.092-1.408-0.323-2.147
		l-0.05-0.159L206.775,997.479"/>
	<path id="path182" fill="#FFFFFF" d="M209.184,1002.536L209.184,1002.536z M209.506,1002.401l-0.365,0.06
		c-1.344,0.22-5.152,2.366-5.734,3.237l-0.15,0.222l0.264,0.044c3.134,0.547,4.809-1.589,5.798-3.244l0.097-0.159L209.506,1002.401"
		/>
	<path id="path186" fill="#FFFFFF" d="M194.381,1007.257c-0.102,0.048-2.375,1.224-3.828,3.123l-0.09,0.117l0.102,0.107
		c0.099,0.107,0.342,0.294,0.498,0.346l0.104,0.037l0.077-0.087c1.392-1.731,3.78-3.853,6.33-4.117
		c0.405,0.396,0.732,0.693,1.278,0.877c1.45,0.489,3.948,0.248,5.942-0.567l0.473-0.194l-0.494-0.135
		C200.037,1005.482,196.426,1006.257,194.381,1007.257"/>
	<path id="path190" fill="#FFFFFF" d="M204.695,1001.295l-0.303,0.157c-1.015,0.7-3.922,3.181-4.137,4.035l-0.05,0.196l0.204,0.018
		c3.17,0.273,3.934-2.192,4.23-4.066l0.028-0.171L204.695,1001.295"/>
	<path id="path192" fill="#FFFFFF" d="M128.205,1007.621h-3.33v-17.609h3.33V1007.621z M124.556,982.294h3.965v3.613h-3.965V982.294
		z"/>
	<path id="path196" fill="#FFFFFF" d="M99.715,990.027h3.332v17.61h-3.262v-2.596h-0.069c-1.335,2.21-3.581,3.12-6.034,3.12
		c-3.685,0-5.79-2.805-5.79-6.348v-11.787h3.335v10.42c0,3.051,0.702,5.296,3.893,5.296c1.366,0,3.227-0.701,3.928-2.525
		c0.63-1.649,0.667-3.72,0.667-4.139V990.027"/>
	<path id="path200" fill="#FFFFFF" d="M109.702,992.623h0.069c1.121-2.21,3.578-3.121,5.332-3.121c1.226,0,6.666,0.315,6.666,5.962
		v12.172h-3.332v-11.084c0-2.912-1.227-4.49-4.034-4.49c0,0-1.825-0.105-3.227,1.296c-0.49,0.491-1.404,1.263-1.404,4.701v9.577
		h-3.331v-17.61h3.262V992.623"/>
	<path id="path204" fill="#FFFFFF" d="M142.162,995.675c-0.178-2.197-1.22-3.726-3.593-3.726c-3.167,0-4.39,2.748-4.39,6.866
		c0,4.111,1.223,6.863,4.39,6.863c2.196,0,3.554-1.424,3.727-3.936h3.314c-0.281,3.936-3.203,6.34-7.075,6.34
		c-5.609,0-7.841-3.97-7.841-9.13c0-5.129,2.578-9.413,8.123-9.413c3.694,0,6.479,2.336,6.649,6.135H142.162"/>
	<path id="path208" fill="#FFFFFF" d="M159.439,997.141c0.07-2.926-1.256-5.192-4.465-5.192c-2.754,0-4.387,2.327-4.387,5.192
		H159.439z M150.588,999.439c-0.245,3.067,1.01,6.238,4.387,6.238c2.578,0,3.873-1.005,4.25-3.557h3.492
		c-0.525,3.979-3.597,5.961-7.772,5.961c-5.613,0-7.848-3.97-7.848-9.13c0-5.129,2.585-9.413,8.125-9.413
		c5.227,0.111,7.701,3.416,7.701,8.264v1.635H150.588"/>
	<path id="path212" fill="#FFFFFF" d="M166.67,1007.559v-15.192h-3.009v-2.309h3.009v-3.757c0.111-3.836,3-4.845,5.477-4.845
		c0.8,0,1.568,0.207,2.371,0.345v2.753c-0.561-0.03-1.115-0.106-1.676-0.106c-1.879,0-2.962,0.493-2.859,2.406v3.204h4.047v2.309
		h-4.047v15.192H166.67"/>
</g>
</svg>
